<?xml version="1.0" encoding="utf-8"?>
<!-- Generator: Adobe Illustrator 16.0.0, SVG Export Plug-In . SVG Version: 6.00 Build 0)  -->
<!DOCTYPE svg PUBLIC "-//W3C//DTD SVG 1.1//EN" "http://www.w3.org/Graphics/SVG/1.1/DTD/svg11.dtd">
<svg version="1.1" id="Layer_1" xmlns="http://www.w3.org/2000/svg" xmlns:xlink="http://www.w3.org/1999/xlink" x="0px" y="0px"
	 width="512px" height="512px" viewBox="0 0 512 512" enable-background="new 0 0 512 512" xml:space="preserve">
<linearGradient id="SVGID_1_" gradientUnits="userSpaceOnUse" x1="0" y1="256" x2="512" y2="256">
	<stop  offset="0" style="stop-color:#FFFFFF"/>
	<stop  offset="1" style="stop-color:#000000"/>
</linearGradient>
<rect display="none" fill="url(#SVGID_1_)" width="512" height="512"/>
<g>
	<path fill="#4C4C4C" d="M116.083,259.926c6.708,4.127,16.512,7.568,26.831,7.568c15.309,0,24.252-8.084,24.252-19.78
		c0-10.836-6.191-17.028-21.844-23.048c-18.92-6.708-30.615-16.512-30.615-32.851c0-18.06,14.964-31.476,37.495-31.476
		c11.868,0,20.468,2.752,25.628,5.676l-4.128,12.212c-3.784-2.064-11.524-5.504-22.016-5.504c-15.823,0-21.844,9.46-21.844,17.372
		c0,10.836,7.052,16.167,23.048,22.36c19.607,7.567,29.583,17.028,29.583,34.055c0,17.888-13.243,33.367-40.591,33.367
		c-11.18,0-23.392-3.268-29.584-7.396L116.083,259.926z"/>
	<path fill="#4C4C4C" d="M291.176,272.998c-6.707,2.407-19.951,6.363-35.603,6.363c-17.544,0-31.991-4.473-43.343-15.309
		c-9.977-9.631-16.168-25.111-16.168-43.17c0.172-34.571,23.908-59.855,62.78-59.855c13.416,0,23.906,2.924,28.895,5.332
		l-3.611,12.212c-6.191-2.752-13.932-4.988-25.627-4.988c-28.208,0-46.612,17.543-46.612,46.611
		c0,29.411,17.715,46.783,44.719,46.783c9.803,0,16.512-1.376,19.952-3.097v-34.57h-23.563V217.27h38.182V272.998z"/>
	<path fill="#4C4C4C" d="M314.053,162.231h14.965v55.899h0.516c3.096-4.472,6.191-8.6,9.115-12.384l35.432-43.516h18.576
		l-41.967,49.191l45.234,66.735h-17.715l-38.184-56.931l-11.008,12.728v44.203h-14.965V162.231z"/>
</g>
<g>
	<path fill="none" stroke="#4C4C4C" stroke-width="11" stroke-miterlimit="10" d="M66.792,238.171c0,44,36,80,80,80h212.401
		c44,0,80-36,80-80V210.45c0-44-36-80-80-80H146.792c-44,0-80,36-80,80V238.171z"/>
</g>
</svg>
