<?xml version="1.0" encoding="utf-8"?>
<!-- Generator: Adobe Illustrator 16.0.0, SVG Export Plug-In . SVG Version: 6.00 Build 0)  -->
<!DOCTYPE svg PUBLIC "-//W3C//DTD SVG 1.1//EN" "http://www.w3.org/Graphics/SVG/1.1/DTD/svg11.dtd">
<svg version="1.1" id="Layer_1" xmlns="http://www.w3.org/2000/svg" xmlns:xlink="http://www.w3.org/1999/xlink" x="0px" y="0px"
	 width="512px" height="512px" viewBox="0 0 512 512" enable-background="new 0 0 512 512" xml:space="preserve">
<linearGradient id="SVGID_1_" gradientUnits="userSpaceOnUse" x1="8.3601" y1="280.0547" x2="520.3596" y2="280.0547" gradientTransform="matrix(1 0 0 -1 -8.3599 536.0547)">
	<stop  offset="0" style="stop-color:#FFFFFF"/>
	<stop  offset="1" style="stop-color:#000000"/>
</linearGradient>
<rect x="0" display="none" fill="url(#SVGID_1_)" width="512" height="512"/>
<g opacity="0.7">
	<linearGradient id="SVGID_2_" gradientUnits="userSpaceOnUse" x1="252.9924" y1="251.1709" x2="252.9924" y2="197.4502">
		<stop  offset="0" style="stop-color:#000000"/>
		<stop  offset="0.2743" style="stop-color:#373535"/>
		<stop  offset="0.5179" style="stop-color:#636161"/>
		<stop  offset="0.6008" style="stop-color:#5A5858"/>
		<stop  offset="0.7384" style="stop-color:#403F3F"/>
		<stop  offset="0.9129" style="stop-color:#171717"/>
		<stop  offset="1" style="stop-color:#000000"/>
	</linearGradient>
	<path fill="url(#SVGID_2_)" d="M199.707,228.277c0,12.592,10.302,22.894,22.894,22.894h60.783
		c12.592,0,22.894-10.302,22.894-22.894v-7.933c0-12.592-10.302-22.894-22.894-22.894h-60.783
		c-12.592,0-22.894,10.302-22.894,22.894V228.277z"/>
</g>
<g>
	<path fill="#F9F9F9" d="M213.813,234.503c1.919,1.181,4.725,2.166,7.678,2.166c4.381,0,6.94-2.313,6.94-5.661
		c0-3.101-1.772-4.873-6.251-6.596c-5.415-1.919-8.761-4.725-8.761-9.401c0-5.168,4.282-9.008,10.73-9.008
		c3.396,0,5.857,0.788,7.334,1.625l-1.182,3.495c-1.083-0.59-3.298-1.575-6.3-1.575c-4.528,0-6.251,2.707-6.251,4.971
		c0,3.101,2.018,4.626,6.596,6.399c5.611,2.165,8.466,4.873,8.466,9.746c0,5.119-3.79,9.549-11.616,9.549
		c-3.199,0-6.694-0.935-8.466-2.117L213.813,234.503z"/>
	<path fill="#F9F9F9" d="M263.919,238.244c-1.919,0.689-5.709,1.821-10.188,1.821c-5.021,0-9.155-1.28-12.403-4.381
		c-2.855-2.756-4.627-7.186-4.627-12.354c0.049-9.893,6.842-17.129,17.966-17.129c3.84,0,6.842,0.837,8.269,1.526l-1.032,3.495
		c-1.772-0.788-3.987-1.428-7.334-1.428c-8.072,0-13.339,5.021-13.339,13.339c0,8.417,5.069,13.388,12.797,13.388
		c2.806,0,4.726-0.394,5.71-0.886v-9.893h-6.743v-3.445h10.927L263.919,238.244L263.919,238.244z"/>
	<path fill="#F9F9F9" d="M270.466,206.545h4.283v15.997h0.147c0.886-1.28,1.771-2.461,2.608-3.544l10.14-12.453h5.315l-12.01,14.077
		l12.945,19.098h-5.069l-10.928-16.292l-3.15,3.642v12.65h-4.282V206.545L270.466,206.545z"/>
</g>
<g opacity="0.7">
	<path opacity="0.4" fill="#F9F9F9" d="M306.282,229.182v-8.166c0.327-13.032-10.302-23.566-22.894-23.566h-60.783
		c-10.168,0.065-18.043,6.519-21.05,13.905C201.556,211.355,293.896,239.72,306.282,229.182z"/>
</g>
<path fill="#F9F9F9" d="M305.75,228.5"/>
</svg>
